<svg xmlns="http://www.w3.org/2000/svg" viewBox="0 0 494.96 494.87"><defs><style>.cls-1{fill:none;stroke:#e6e6e6;stroke-miterlimit:10;stroke-width:2px;}</style></defs><title>EOG_Trophy_Ticks</title><g id="Layer_2" data-name="Layer 2"><line class="cls-1" x1="247.48" x2="247.48" y2="18"/><line class="cls-1" x1="265.34" y1="0.65" x2="264.04" y2="18.6"/><line class="cls-1" x1="283.1" y1="2.58" x2="280.51" y2="20.37"/><line class="cls-1" x1="300.68" y1="5.79" x2="296.82" y2="23.32"/><line class="cls-1" x1="317.99" y1="10.26" x2="312.88" y2="27.45"/><line class="cls-1" x1="334.92" y1="15.96" x2="328.59" y2="32.73"/><line class="cls-1" x1="351.4" y1="22.88" x2="343.87" y2="39.15"/><line class="cls-1" x1="367.34" y1="30.96" x2="358.65" y2="46.65"/><line class="cls-1" x1="382.65" y1="40.17" x2="372.85" y2="55.2"/><line class="cls-1" x1="397.26" y1="50.47" x2="386.39" y2="64.76"/><line class="cls-1" x1="411.09" y1="61.79" x2="399.21" y2="75.26"/><line class="cls-1" x1="424.06" y1="74.08" x2="411.25" y2="86.66"/><line class="cls-1" x1="436.11" y1="87.27" x2="422.43" y2="98.9"/><line class="cls-1" x1="447.18" y1="101.3" x2="432.7" y2="111.9"/><line class="cls-1" x1="457.21" y1="116.09" x2="442.01" y2="125.62"/><line class="cls-1" x1="466.15" y1="131.57" x2="450.3" y2="139.97"/><line class="cls-1" x1="473.94" y1="147.65" x2="457.54" y2="154.88"/><line class="cls-1" x1="480.56" y1="164.25" x2="463.67" y2="170.28"/><line class="cls-1" x1="485.96" y1="181.29" x2="468.67" y2="186.09"/><line class="cls-1" x1="490.11" y1="198.67" x2="472.51" y2="202.21"/><line class="cls-1" x1="493" y1="216.3" x2="475.17" y2="218.57"/><line class="cls-1" x1="494.61" y1="234.1" x2="476.64" y2="235.08"/><line class="cls-1" x1="494.94" y1="251.97" x2="476.93" y2="251.64"/><line class="cls-1" x1="493.97" y1="269.81" x2="476.04" y2="268.19"/><line class="cls-1" x1="473.98" y1="284.63" x2="491.72" y2="287.54"/><line class="cls-1" x1="488.19" y1="305.06" x2="470.73" y2="300.89"/><line class="cls-1" x1="466.32" y1="316.86" x2="483.41" y2="322.28"/><line class="cls-1" x1="477.4" y1="339.11" x2="460.75" y2="332.48"/><line class="cls-1" x1="454.07" y1="347.64" x2="470.19" y2="355.46"/><line class="cls-1" x1="461.82" y1="371.25" x2="446.3" y2="362.29"/><line class="cls-1" x1="437.49" y1="376.33" x2="452.33" y2="386.39"/><line class="cls-1" x1="441.77" y1="400.81" x2="427.69" y2="389.7"/><line class="cls-1" x1="416.95" y1="402.33" x2="430.21" y2="414.43"/><line class="cls-1" x1="417.68" y1="427.18" x2="405.34" y2="414.15"/><line class="cls-1" x1="404.27" y1="439" x2="392.9" y2="425.11"/><line class="cls-1" x1="390.05" y1="449.81" x2="379.71" y2="435.15"/><line class="cls-1" x1="375.08" y1="459.57" x2="365.83" y2="444.21"/><line class="cls-1" x1="359.44" y1="468.23" x2="351.33" y2="452.24"/><line class="cls-1" x1="343.22" y1="475.73" x2="336.29" y2="459.21"/><line class="cls-1" x1="326.5" y1="482.04" x2="320.78" y2="465.06"/><line class="cls-1" x1="309.37" y1="487.14" x2="304.89" y2="469.77"/><line class="cls-1" x1="291.92" y1="490.98" x2="288.7" y2="473.31"/><line class="cls-1" x1="274.24" y1="493.55" x2="272.29" y2="475.66"/><line class="cls-1" x1="256.41" y1="494.84" x2="255.76" y2="476.84"/><line class="cls-1" x1="238.54" y1="494.84" x2="239.19" y2="476.84"/><line class="cls-1" x1="220.72" y1="493.55" x2="222.66" y2="475.66"/><line class="cls-1" x1="203.03" y1="490.98" x2="206.26" y2="473.31"/><line class="cls-1" x1="185.58" y1="487.14" x2="190.06" y2="469.77"/><line class="cls-1" x1="168.45" y1="482.04" x2="174.17" y2="465.06"/><line class="cls-1" x1="151.73" y1="475.73" x2="158.66" y2="459.21"/><line class="cls-1" x1="135.51" y1="468.23" x2="143.62" y2="452.24"/><line class="cls-1" x1="119.88" y1="459.57" x2="129.12" y2="444.21"/><line class="cls-1" x1="104.91" y1="449.81" x2="115.24" y2="435.15"/><line class="cls-1" x1="90.68" y1="439" x2="102.05" y2="425.11"/><line class="cls-1" x1="89.62" y1="414.15" x2="77.27" y2="427.18"/><line class="cls-1" x1="78" y1="402.33" x2="64.75" y2="414.43"/><line class="cls-1" x1="67.27" y1="389.7" x2="53.18" y2="400.81"/><line class="cls-1" x1="57.47" y1="376.33" x2="42.62" y2="386.39"/><line class="cls-1" x1="48.66" y1="362.29" x2="33.14" y2="371.25"/><line class="cls-1" x1="40.89" y1="347.64" x2="24.77" y2="355.46"/><line class="cls-1" x1="34.2" y1="332.48" x2="17.56" y2="339.11"/><line class="cls-1" x1="28.64" y1="316.86" x2="11.55" y2="322.28"/><line class="cls-1" x1="24.22" y1="300.89" x2="6.76" y2="305.06"/><line class="cls-1" x1="20.98" y1="284.63" x2="3.24" y2="287.54"/><line class="cls-1" x1="18.91" y1="268.19" x2="0.99" y2="269.81"/><line class="cls-1" x1="18.03" y1="251.64" x2="0.02" y2="251.97"/><line class="cls-1" x1="0.34" y1="234.1" x2="18.31" y2="235.08"/><line class="cls-1" x1="19.78" y1="218.57" x2="1.95" y2="216.3"/><line class="cls-1" x1="4.84" y1="198.67" x2="22.45" y2="202.21"/><line class="cls-1" x1="26.28" y1="186.09" x2="9" y2="181.29"/><line class="cls-1" x1="14.4" y1="164.25" x2="31.28" y2="170.28"/><line class="cls-1" x1="37.42" y1="154.88" x2="21.01" y2="147.65"/><line class="cls-1" x1="28.81" y1="131.57" x2="44.65" y2="139.97"/><line class="cls-1" x1="52.95" y1="125.62" x2="37.74" y2="116.09"/><line class="cls-1" x1="47.77" y1="101.3" x2="62.26" y2="111.9"/><line class="cls-1" x1="72.53" y1="98.9" x2="58.84" y2="87.27"/><line class="cls-1" x1="70.9" y1="74.08" x2="83.71" y2="86.66"/><line class="cls-1" x1="83.87" y1="61.79" x2="95.74" y2="75.26"/><line class="cls-1" x1="97.7" y1="50.47" x2="108.56" y2="64.76"/><line class="cls-1" x1="112.31" y1="40.17" x2="122.1" y2="55.2"/><line class="cls-1" x1="127.62" y1="30.96" x2="136.3" y2="46.65"/><line class="cls-1" x1="143.56" y1="22.88" x2="151.08" y2="39.15"/><line class="cls-1" x1="160.03" y1="15.96" x2="166.37" y2="32.73"/><line class="cls-1" x1="176.97" y1="10.26" x2="182.08" y2="27.45"/><line class="cls-1" x1="194.27" y1="5.79" x2="198.13" y2="23.32"/><line class="cls-1" x1="211.85" y1="2.58" x2="214.44" y2="20.37"/><line class="cls-1" x1="229.62" y1="0.65" x2="230.92" y2="18.6"/></g></svg>